<svg width="180" height="180" viewBox="0 0 180 180" fill="none" xmlns="http://www.w3.org/2000/svg" role="img" aria-labelledby="title desc">
<title id="title">Nudli Translation Logo</title>
<desc id="desc">Curly yellow pasta like shape above the word nudli in dark gray on a pale warm circle.</desc>
<rect width="180" height="180" rx="90" fill="#FFF6D7"/>
<path d="M94.8 64.4c-2-.5-3.5-2.2-3.5-4.3 0-5.2 5.2-9.6 11.6-9.6 8.9 0 16.1 7.2 16.1 16.1 0 10.9-8.8 19.7-19.7 19.7-13 0-23.6-10.6-23.6-23.6 0-15.7 12.7-28.4 28.4-28.4 17.7 0 32.1 14.4 32.1 32.1 0 20.4-16.5 36.9-36.9 36.9-24.7 0-44.7-20-44.7-44.7 0-28.1 22.8-50.9 50.9-50.9 31.2 0 56.4 25.3 56.4 56.4 0 34.5-28 62.5-62.5 62.5-42.2 0-76.4-34.2-76.4-76.4" stroke="#E5B321" stroke-width="8" stroke-linecap="round" stroke-linejoin="round"/>
<text x="90" y="128" text-anchor="middle" font-family="'Segoe UI', Arial, sans-serif" font-size="46" font-weight="600" fill="#2F3235" letter-spacing="1">nudli</text>
<text x="90" y="152" text-anchor="middle" font-family="'Segoe UI', Arial, sans-serif" font-size="18" font-weight="400" fill="#2F3235">Translation</text>
</svg>
